<?xml version="1.0" encoding="UTF-8" standalone="no"?>
<!-- Created with Inkscape (http://www.inkscape.org/) -->

<svg
   xmlns:dc="http://purl.org/dc/elements/1.1/"
   xmlns:cc="http://creativecommons.org/ns#"
   xmlns:rdf="http://www.w3.org/1999/02/22-rdf-syntax-ns#"
   xmlns:svg="http://www.w3.org/2000/svg"
   xmlns="http://www.w3.org/2000/svg"
   xmlns:sodipodi="http://sodipodi.sourceforge.net/DTD/sodipodi-0.dtd"
   xmlns:inkscape="http://www.inkscape.org/namespaces/inkscape"
   width="3.1245801mm"
   height="4.2333398mm"
   viewBox="0 0 3.1245801 4.2333398"
   version="1.1"
   id="svg8"
   inkscape:version="0.92.4 5da689c313, 2019-01-14"
   sodipodi:docname="dodlar_sign.svg">
  <defs
     id="defs2" />
  <sodipodi:namedview
     id="base"
     pagecolor="#ffffff"
     bordercolor="#666666"
     borderopacity="1.0"
     inkscape:pageopacity="0.0"
     inkscape:pageshadow="2"
     inkscape:zoom="22.4"
     inkscape:cx="18.292785"
     inkscape:cy="-0.3264166"
     inkscape:document-units="mm"
     inkscape:current-layer="layer1"
     showgrid="false"
     inkscape:window-width="1680"
     inkscape:window-height="1001"
     inkscape:window-x="1080"
     inkscape:window-y="0"
     inkscape:window-maximized="1" />
  <metadata
     id="metadata5">
    <rdf:RDF>
      <cc:Work
         rdf:about="">
        <dc:format>image/svg+xml</dc:format>
        <dc:type
           rdf:resource="http://purl.org/dc/dcmitype/StillImage" />
        <dc:title />
      </cc:Work>
    </rdf:RDF>
  </metadata>
  <g
     inkscape:label="Layer 1"
     inkscape:groupmode="layer"
     id="layer1"
     transform="translate(-56.494457,-150.17653)">
    <g
       aria-label="D"
       style="font-style:normal;font-variant:normal;font-weight:normal;font-stretch:normal;font-size:22.86002159px;line-height:1.25;font-family:'ZCOOL KuaiLe';-inkscape-font-specification:'ZCOOL KuaiLe, Normal';font-variant-ligatures:normal;font-variant-caps:normal;font-variant-numeric:normal;font-feature-settings:normal;text-align:start;letter-spacing:0px;word-spacing:0px;writing-mode:lr-tb;text-anchor:start;fill:#818384;fill-opacity:1;stroke:#ff0000;stroke-width:0.57150048;stroke-opacity:1"
       id="text817"
       transform="matrix(0.20584815,0,0,0.20584815,44.845726,122.61515)">
      <path
         style="font-style:normal;font-variant:normal;font-weight:normal;font-stretch:normal;font-size:22.86002159px;font-family:'ZCOOL KuaiLe';-inkscape-font-specification:'ZCOOL KuaiLe, Normal';font-variant-ligatures:normal;font-variant-caps:normal;font-variant-numeric:normal;font-feature-settings:normal;text-align:start;writing-mode:lr-tb;text-anchor:start;fill:#818384;fill-opacity:1;stroke:none;stroke-width:0.44463238;stroke-opacity:1"
         d="M 6.9160156 -0.001953125 L 6.7304688 3.4511719 L 5.609375 3.0527344 L 5.7636719 0.16015625 L 4.4433594 0.0859375 L 4.3085938 2.5917969 L 2.0097656 1.7773438 L 0.9609375 2.5058594 L 0 13.568359 L 1.03125 14.458984 L 3.71875 13.597656 L 3.59375 15.927734 L 4.9160156 16 L 5.0683594 13.166016 L 6.2304688 12.794922 L 6.0664062 15.845703 L 7.3808594 15.912109 L 7.5703125 12.365234 L 11.169922 11.212891 L 11.808594 10.5625 L 11.525391 5.5136719 L 10.867188 4.9179688 L 8.0253906 3.9101562 L 8.2304688 0.0703125 L 6.9160156 -0.001953125 z M 2.5429688 3.609375 L 4.2246094 4.1699219 L 3.8066406 11.96875 L 1.7792969 12.572266 L 2.5429688 3.609375 z M 5.5253906 4.6054688 L 6.6484375 4.9804688 L 6.3144531 11.220703 L 5.1523438 11.566406 L 5.5253906 4.6054688 z M 7.9433594 5.4121094 L 9.8710938 6.0546875 L 10.119141 10.087891 L 7.6542969 10.822266 L 7.9433594 5.4121094 z "
         transform="matrix(1.2853326,0,0,1.2853326,56.588952,133.8918)"
         id="path823" />
    </g>
  </g>
</svg>
